<svg width="142" height="39" viewBox="0 0 142 39" fill="none" xmlns="http://www.w3.org/2000/svg">
<g filter="url(#filter0_dddi_727_2685)">
<path d="M3 15.6589C3 11.1785 3 8.93826 3.87195 7.22696C4.63893 5.72167 5.86278 4.49782 7.36808 3.73083C9.07937 2.85889 11.3196 2.85889 15.8 2.85889H22.2C26.6804 2.85889 28.9206 2.85889 30.6319 3.73083C32.1372 4.49782 33.3611 5.72167 34.1281 7.22696C35 8.93826 35 11.1785 35 15.6589V22.0589C35 26.5393 35 28.7795 34.1281 30.4908C33.3611 31.9961 32.1372 33.22 30.6319 33.9869C28.9206 34.8589 26.6804 34.8589 22.2 34.8589H15.8C11.3196 34.8589 9.07937 34.8589 7.36808 33.9869C5.86278 33.22 4.63893 31.9961 3.87195 30.4908C3 28.7795 3 26.5393 3 22.0589V15.6589Z" fill="#FF5A01"/>
<path d="M15.7998 2.9585H22.2002C24.442 2.9585 26.1173 2.95929 27.4463 3.06787C28.7741 3.17636 29.7477 3.39224 30.5869 3.81982C32.0732 4.57719 33.2817 5.7857 34.0391 7.27197C34.4666 8.11116 34.6825 9.0848 34.791 10.4126C34.8996 11.7416 34.9004 13.4169 34.9004 15.6587V22.0591C34.9004 24.3008 34.8996 25.9762 34.791 27.3052C34.6825 28.633 34.4666 29.6066 34.0391 30.4458C33.2817 31.9321 32.0732 33.1406 30.5869 33.8979C29.7477 34.3255 28.7741 34.5414 27.4463 34.6499C26.1173 34.7585 24.442 34.7593 22.2002 34.7593H15.7998C13.558 34.7593 11.8827 34.7585 10.5537 34.6499C9.22592 34.5414 8.25227 34.3255 7.41309 33.8979C5.92681 33.1406 4.7183 31.9321 3.96094 30.4458C3.53335 29.6066 3.31747 28.633 3.20898 27.3052C3.1004 25.9762 3.09961 24.3008 3.09961 22.0591V15.6587C3.09961 13.4169 3.1004 11.7416 3.20898 10.4126C3.31747 9.0848 3.53335 8.11116 3.96094 7.27197C4.7183 5.7857 5.92681 4.57719 7.41309 3.81982C8.25227 3.39224 9.22592 3.17636 10.5537 3.06787C11.8827 2.95929 13.558 2.9585 15.7998 2.9585Z" stroke="#0A0D12" stroke-opacity="0.12" stroke-width="0.2"/>
<path fill-rule="evenodd" clip-rule="evenodd" d="M24.8626 27.6259L27.767 24.7215C27.9365 24.5522 28.0316 24.3224 28.0316 24.0829V10.7304C28.0316 10.2316 27.6273 9.82727 27.1285 9.82727H13.776C13.5365 9.82727 13.3067 9.92242 13.1374 10.0918L10.2329 12.9963C10.0635 13.1656 9.96838 13.3953 9.96838 13.6349V26.9873C9.96838 27.4861 10.3727 27.8905 10.8715 27.8905H24.224C24.4635 27.8905 24.6933 27.7954 24.8626 27.6259ZM13.4019 13.3478C13.4019 13.2997 13.4409 13.2608 13.489 13.2608H24.511C24.5591 13.2608 24.5981 13.2997 24.5981 13.3478V24.3699C24.5981 24.418 24.5591 24.457 24.511 24.457H11.1452C11.0603 24.457 11.0256 24.3479 11.0949 24.2989L13.3651 22.6916C13.3882 22.6753 13.4019 22.6488 13.4019 22.6206V13.3478Z" fill="white"/>
</g>
<path d="M54.1909 28.0769C48.2534 28.0769 45 24.2813 45 18.6962C45 13.0841 48.2534 9.09865 54.1909 9.09865C60.1013 9.09865 63.3276 13.0841 63.3276 18.6962C63.3276 24.2813 60.1013 28.0769 54.1909 28.0769ZM49.2566 18.6691C49.2566 21.8683 50.9104 24.227 54.1909 24.227C57.4172 24.227 59.071 21.8683 59.071 18.6691C59.071 15.4428 57.4172 12.9485 54.1909 12.9485C50.9104 12.9485 49.2566 15.4428 49.2566 18.6691Z" fill="#262626"/>
<path d="M69.9058 27.6702V13.2468H64.0225V9.50533H79.9643V13.2468H74.1081V27.6702H69.9058Z" fill="#262626"/>
<path d="M81.6126 27.6702V9.50533H89.8817C94.4907 9.50533 96.4427 12.2436 96.4427 15.6055C96.4427 18.9673 94.4907 21.7056 89.8817 21.7056H85.8149V27.6702H81.6126ZM89.3123 17.9642C91.1559 17.9642 92.1862 17.1509 92.1862 15.6055C92.1862 14.0601 91.1559 13.2468 89.3123 13.2468H85.8149V17.9642H89.3123Z" fill="#262626"/>
<path d="M98.5574 27.6702V9.50533H102.76V27.6702H98.5574Z" fill="#262626"/>
<path d="M114.186 28.0769C108.357 28.0769 104.995 24.4439 104.995 18.6962C104.995 13.0841 108.249 9.09865 114.186 9.09865C120.097 9.09865 123.323 13.0841 123.323 18.6962C123.323 21.0821 122.754 23.1426 121.615 24.6879C122.022 25.0133 122.428 25.2573 122.889 25.3386V28.6191C121.344 28.592 120.151 27.9142 119.094 26.9653C117.738 27.6702 116.111 28.0769 114.186 28.0769ZM109.062 18.6691C109.062 19.9163 109.36 21.2176 110.065 22.4376H110.418C110.065 19.5367 112.18 18.5878 113.834 18.5878C115.65 18.5878 117.277 19.9434 118.524 21.7056C118.931 20.9465 119.066 19.5638 119.066 18.6691C119.066 15.4428 117.413 12.9485 114.186 12.9485C110.906 12.9485 109.062 15.4428 109.062 18.6691ZM111.963 23.4679C111.963 24.6879 113.075 24.8235 114.105 24.8235C115.027 24.8235 115.813 24.6337 116.545 24.3084C115.542 23.1154 114.539 22.2208 113.319 22.2208C112.397 22.2208 111.963 22.7088 111.963 23.4679Z" fill="#262626"/>
<defs>
<filter id="filter0_dddi_727_2685" x="0" y="0.858887" width="38" height="38" filterUnits="userSpaceOnUse" color-interpolation-filters="sRGB">
<feFlood flood-opacity="0" result="BackgroundImageFix"/>
<feColorMatrix in="SourceAlpha" type="matrix" values="0 0 0 0 0 0 0 0 0 0 0 0 0 0 0 0 0 0 127 0" result="hardAlpha"/>
<feOffset dy="1"/>
<feGaussianBlur stdDeviation="1"/>
<feColorMatrix type="matrix" values="0 0 0 0 0.0392157 0 0 0 0 0.0509804 0 0 0 0 0.0705882 0 0 0 0.06 0"/>
<feBlend mode="normal" in2="BackgroundImageFix" result="effect1_dropShadow_727_2685"/>
<feColorMatrix in="SourceAlpha" type="matrix" values="0 0 0 0 0 0 0 0 0 0 0 0 0 0 0 0 0 0 127 0" result="hardAlpha"/>
<feOffset dy="1"/>
<feGaussianBlur stdDeviation="1.5"/>
<feColorMatrix type="matrix" values="0 0 0 0 0.0392157 0 0 0 0 0.0509804 0 0 0 0 0.0705882 0 0 0 0.1 0"/>
<feBlend mode="normal" in2="effect1_dropShadow_727_2685" result="effect2_dropShadow_727_2685"/>
<feColorMatrix in="SourceAlpha" type="matrix" values="0 0 0 0 0 0 0 0 0 0 0 0 0 0 0 0 0 0 127 0" result="hardAlpha"/>
<feMorphology radius="0.5" operator="erode" in="SourceAlpha" result="effect3_dropShadow_727_2685"/>
<feOffset dy="1"/>
<feGaussianBlur stdDeviation="0.5"/>
<feComposite in2="hardAlpha" operator="out"/>
<feColorMatrix type="matrix" values="0 0 0 0 0.0392157 0 0 0 0 0.0509804 0 0 0 0 0.0705882 0 0 0 0.13 0"/>
<feBlend mode="normal" in2="effect2_dropShadow_727_2685" result="effect3_dropShadow_727_2685"/>
<feBlend mode="normal" in="SourceGraphic" in2="effect3_dropShadow_727_2685" result="shape"/>
<feColorMatrix in="SourceAlpha" type="matrix" values="0 0 0 0 0 0 0 0 0 0 0 0 0 0 0 0 0 0 127 0" result="hardAlpha"/>
<feOffset dy="-0.5"/>
<feGaussianBlur stdDeviation="0.25"/>
<feComposite in2="hardAlpha" operator="arithmetic" k2="-1" k3="1"/>
<feColorMatrix type="matrix" values="0 0 0 0 0.0392157 0 0 0 0 0.0509804 0 0 0 0 0.0705882 0 0 0 0.1 0"/>
<feBlend mode="normal" in2="shape" result="effect4_innerShadow_727_2685"/>
</filter>
</defs>
</svg>
